<svg xmlns="http://www.w3.org/2000/svg" viewBox="0 0 473.01 470.93"><defs><style>.cls-1{fill:#fff;}.cls-2{fill:#231f20;}</style></defs><g id="Layer_2" data-name="Layer 2"><g id="Layer_1-2" data-name="Layer 1"><path class="cls-1" d="M138.72,470.34h-16.5v-34.7h16.11c7.08,0,11.45,3.52,11.45,9v.1a8.08,8.08,0,0,1-4.57,7.49c4,1.54,6.5,3.86,6.5,8.52v.1C151.71,467.17,146.55,470.34,138.72,470.34Zm3.47-24.44c0-2.28-1.78-3.56-5-3.56h-7.54v7.33h7c3.37,0,5.5-1.09,5.5-3.67Zm1.93,13.88c0-2.33-1.73-3.76-5.65-3.76h-8.82v7.63h9.07c3.37,0,5.4-1.19,5.4-3.77Z"/><path class="cls-1" d="M158.35,470.34v-34.7H166v34.7Z"/><path class="cls-1" d="M191.51,470.93c-10.7,0-18.39-8-18.39-17.84V453c0-9.86,7.79-17.94,18.49-17.94S210,443,210,452.89v.1C210,462.85,202.22,470.93,191.51,470.93ZM202,453c0-5.95-4.36-10.9-10.51-10.9S181.1,447,181.1,452.89v.1c0,5.95,4.36,10.91,10.51,10.91S202,459,202,453.09Z"/><path class="cls-1" d="M216.79,470.34v-34.7h7.63V463.4h17.3v6.94Z"/><path class="cls-1" d="M262.34,470.93c-10.7,0-18.39-8-18.39-17.84V453c0-9.86,7.79-17.94,18.49-17.94s18.39,8,18.39,17.84v.1C280.83,462.85,273.05,470.93,262.34,470.93ZM272.85,453c0-5.95-4.36-10.9-10.51-10.9s-10.4,4.86-10.4,10.8v.1c0,5.95,4.36,10.91,10.5,10.91s10.41-4.86,10.41-10.81Z"/><path class="cls-1" d="M304.33,470.93c-10.81,0-18.24-7.58-18.24-17.84V453a17.81,17.81,0,0,1,18.19-17.94c6.24,0,10,1.68,13.63,4.76l-4.81,5.8c-2.68-2.23-5.06-3.52-9.07-3.52-5.55,0-10,4.9-10,10.8v.1c0,6.35,4.36,11,10.5,11a12.16,12.16,0,0,0,7.19-2.09v-5h-7.68v-6.59h15.07v15.06A22.5,22.5,0,0,1,304.33,470.93Z"/><path class="cls-1" d="M342.4,456.51v13.83h-7.64V456.66l-13.33-21h8.92l8.28,13.93,8.43-13.93h8.67Z"/><path class="cls-1" d="M13.12,378.47a16.57,16.57,0,0,1,5.41.83,11.72,11.72,0,0,1,4.1,2.35,10.59,10.59,0,0,1,2.61,3.69,13.25,13.25,0,0,1,0,9.6,9.83,9.83,0,0,1-2.59,3.6,12,12,0,0,1-4.11,2.28,17.42,17.42,0,0,1-5.44.8H7.24V410H0V378.47ZM12.65,395A6.77,6.77,0,0,0,17,393.76a4.2,4.2,0,0,0,1.53-3.48,4.25,4.25,0,0,0-1.53-3.5,6.65,6.65,0,0,0-4.35-1.25H7.24V395Z"/><path class="cls-1" d="M37.25,378.47h8.89L57.72,410H50.33l-2.07-5.55H35.09l-2,5.55H25.68Zm9,20.23-4.52-12.37L37.16,398.7Z"/><path class="cls-1" d="M62.7,378.47l8.23,22.91,8.14-22.91h7.86L75.36,410H66.47L54.89,378.47Z"/><path class="cls-1" d="M95.68,378.47h8.89L116.14,410h-7.39l-2.07-5.55H93.51l-2,5.55H84.1Zm9,20.23-4.52-12.37L95.58,398.7Z"/><path class="cls-1" d="M132.83,378.47q6.21,0,9.62,2.71a9.23,9.23,0,0,1,3.42,7.69,9.82,9.82,0,0,1-1.79,6,10.31,10.31,0,0,1-5,3.53L146,410h-8.51l-6.21-10.63h-4.47V410h-7.25V378.47Zm-.18,15.2a6.73,6.73,0,0,0,4.14-1.11,3.9,3.9,0,0,0,0-6.07,6.8,6.8,0,0,0-4.14-1.1h-5.88v8.28Z"/><path class="cls-1" d="M159.65,378.47h8.89L180.11,410h-7.39l-2.07-5.55H157.48l-2,5.55h-7.38Zm9,20.23-4.51-12.37-4.57,12.37Z"/><path class="cls-1" d="M201,378.47h7.24v22.91q0,4.42-2.54,6.77c-1.69,1.57-4.16,2.36-7.39,2.36a25,25,0,0,1-5-.57v-7a18.86,18.86,0,0,0,3.57.42,4,4,0,0,0,3.18-1.08,5.45,5.45,0,0,0,.92-3.53Z"/><path class="cls-1" d="M222.21,378.47h8.89L242.67,410h-7.39l-2.07-5.55H220L218,410h-7.38Zm9,20.23-4.51-12.37-4.57,12.37Z"/><path class="cls-1" d="M247.61,378.47l7,13.5,7-13.5h8.52L258.19,400v10H251V400l-11.86-21.5Z"/><path class="cls-1" d="M278,378.47h8.89L298.46,410h-7.39L289,404.44H275.83l-2,5.55h-7.39Zm9,20.23-4.52-12.37L277.9,398.7Z"/><path class="cls-1" d="M300.29,387.79a8.69,8.69,0,0,1,3.22-7.25q3.23-2.54,9.2-2.54,6.17,0,9.31,2.75a9.87,9.87,0,0,1,3.25,7.6h-7.43a4.1,4.1,0,0,0-1.27-3.15,5.94,5.94,0,0,0-4.1-1.18,6.28,6.28,0,0,0-3.57.87,2.82,2.82,0,0,0-1.27,2.47,2.64,2.64,0,0,0,.52,1.67,4.18,4.18,0,0,0,1.38,1.16,9.24,9.24,0,0,0,2,.77c.77.21,1.57.4,2.42.59,1.32.28,2.68.59,4.09.92a15,15,0,0,1,3.88,1.46,8.26,8.26,0,0,1,2.9,2.61,7.59,7.59,0,0,1,1.12,4.37,8.51,8.51,0,0,1-3.17,6.94q-3.18,2.61-9.76,2.61-6.74,0-10.09-2.78a9.23,9.23,0,0,1-3.36-7.52H307c.25,2.88,2.27,4.33,6.07,4.33a7.58,7.58,0,0,0,3.92-.85,2.77,2.77,0,0,0,.85-4.05,4,4,0,0,0-1.48-1.08,11.28,11.28,0,0,0-2.19-.7c-.83-.19-1.7-.36-2.61-.52-1.29-.25-2.6-.53-3.93-.85A12.22,12.22,0,0,1,304,395a8,8,0,0,1-2.68-2.7A8.5,8.5,0,0,1,300.29,387.79Z"/><path class="cls-1" d="M331.24,378.47h7.25V410h-7.25Z"/><path class="cls-1" d="M345.07,378.47h9.13l11.52,20.94V378.47H373V410h-9.07l-11.58-21v21h-7.24Z"/><path class="cls-1" d="M392.91,410.46a15.15,15.15,0,0,1-6.05-1.18,14,14,0,0,1-4.75-3.29,14.73,14.73,0,0,1-3.1-5.1,19,19,0,0,1-1.11-6.66,16.56,16.56,0,0,1,4.59-11.48,15.61,15.61,0,0,1,5.1-3.48A16.31,16.31,0,0,1,394,378a19,19,0,0,1,5.34.73,14.43,14.43,0,0,1,4.39,2.12,14.23,14.23,0,0,1,3.32,3.34,13.69,13.69,0,0,1,2.05,4.44h-8.71a5.68,5.68,0,0,0-2.54-2.68,8.35,8.35,0,0,0-4-.94,8.54,8.54,0,0,0-3.43.68,7.83,7.83,0,0,0-2.66,1.91,8.48,8.48,0,0,0-1.69,2.87,10.61,10.61,0,0,0-.59,3.57,8.65,8.65,0,0,0,9.41,9.41,10.33,10.33,0,0,0,4.35-.85,6.09,6.09,0,0,0,2.8-2.4v-2.54H395v-5.22h14.34V410h-7.24v-3a11.52,11.52,0,0,1-3.95,2.54A14.5,14.5,0,0,1,392.91,410.46Z"/><path class="cls-1" d="M415.39,378.47h7.25v13.36H436V378.47h7.25V410H436V398.42h-13.4V410h-7.25Z"/><path class="cls-1" d="M449.87,378.47H473v6.45h-15.9v6.25h13.13v6.21H457.11v6.16H473V410H449.87Z"/><path class="cls-1" d="M200,241.22a16.25,16.25,0,1,0-10.12,30c.52,0,1,.07,1.58.07a16.24,16.24,0,0,0,15.36-11,16,16,0,0,0,.89-5.3A16.22,16.22,0,0,0,200,241.22Zm-8.12,22.13a8.3,8.3,0,0,1-6.74-3.45,8.18,8.18,0,0,1-1.55-4.35s0,0,0,0c0-.16,0-.33,0-.49a8.31,8.31,0,1,1,8.31,8.31Z"/><path class="cls-1" d="M357.9,64.87H310.84A76.52,76.52,0,0,0,235.21,0c-.65,0-1.32,0-2,0H110.61a9.24,9.24,0,0,0-9.25,9.23V297.6A31.12,31.12,0,1,0,163.09,292a92.65,92.65,0,0,1-3.88-10.29A30.62,30.62,0,0,1,163.09,292a95.19,95.19,0,0,0,6,11.57c.38.62.75,1.22,1.15,1.82a98.92,98.92,0,0,0,83.54,45.85,305.91,305.91,0,0,0,48.42-3.84h0A118.06,118.06,0,0,0,333,340.71h0a119.15,119.15,0,0,0,78.73-112.08V120.05A55.2,55.2,0,0,0,357.9,64.87Zm22.29,158.89c0,.27,0,.53,0,.8a101.08,101.08,0,0,1-185.42,54.89,24.81,24.81,0,0,1-3.68.28,24.21,24.21,0,1,1,20.45-11.28,81,81,0,0,0,148.61-44.69v-77a21.57,21.57,0,0,0-21.55-21.31H284.28a83.07,83.07,0,0,1-72.1,66.85c-2,.23-4,.39-6,.46H173.06v.08H122.59v-9.49a22.54,22.54,0,0,1,41.76-11.76h38.82a61.8,61.8,0,0,0,61.56-56.38q.24-2.68.24-5.43c0-1.4-.05-2.78-.14-4.15A61.8,61.8,0,0,0,203.17,48H173v0h-8.71a22.54,22.54,0,0,1-41.76-11.76V26.78h80.17a83,83,0,0,1,82.93,78.86H339A42.12,42.12,0,0,1,380,143.49a40.48,40.48,0,0,1,.22,4.28ZM249.63,239.92l39.68-64.11,1.84-3a18.6,18.6,0,0,1,14.27-7.38h1a9.61,9.61,0,0,1,9.11,9.59V241.7a14,14,0,0,1-14,14H257a9.61,9.61,0,0,1-8.82-13.43l0,0Zm-82.32-97.19V76.82h36.81a33,33,0,0,1,0,65.89H167.31Z"/><path class="cls-2" d="M249.63,239.92l-1.44,2.32A9.9,9.9,0,0,1,249.63,239.92Z"/></g></g></svg>