<svg xmlns="http://www.w3.org/2000/svg" viewBox="0 0 473.01 508.16"><defs><style>.cls-1{fill:#232323;}</style></defs><g id="Layer_2" data-name="Layer 2"><g id="Layer_1-2" data-name="Layer 1"><path class="cls-1" d="M103.58,331.79a28.2,28.2,0,0,0,.26,3.93,197,197,0,0,1-.26-277.15Z"/><path class="cls-1" d="M203.87,177H168.51V111.07h36A32.93,32.93,0,0,1,237.27,148C235.33,164.66,220.68,177,203.87,177Z"/><path class="cls-1" d="M282.21,385a211.62,211.62,0,0,0,29.05-2.82,197.42,197.42,0,0,1-174.87-19.93,30.41,30.41,0,0,0,9.16-2.13h0a30.56,30.56,0,0,0,19.09-28.31V317.15c0,6.29,4.13,13.86,7.07,19.13,8.7,15.5,22.72,27.3,38.41,35.29C232.26,382.84,257.68,385.83,282.21,385Z"/><path class="cls-1" d="M258.13,290a9.69,9.69,0,0,1-8.23-14.79l41.49-66.81a18.35,18.35,0,0,1,15.75-8.66,9.66,9.66,0,0,1,9.51,9.67v66.71A13.89,13.89,0,0,1,302.77,290Z"/><path class="cls-1" d="M201.27,289.3A8.31,8.31,0,1,1,193,281,8.31,8.31,0,0,1,201.27,289.3Z"/><path class="cls-1" d="M339.94,140h-53A83.1,83.1,0,0,0,204,61H123.69v8.81c0,11.43,8.27,21.5,19.59,22.93A22.51,22.51,0,0,0,165.44,82.2H204a61.83,61.83,0,1,1,0,123.65H165.44a22.53,22.53,0,0,0-22.16-10.58c-11.32,1.44-19.59,11.51-19.59,22.93V227H204a83.12,83.12,0,0,0,81.5-67.33h54.43a21.73,21.73,0,0,1,21.73,21.74v76.62c0,43.14-35.25,80.26-78.38,81a84.9,84.9,0,0,1-70.69-35.39,24.15,24.15,0,0,0-21.06-37.81,24.16,24.16,0,0,0,1.14,48.3,26.07,26.07,0,0,0,3.1-.19h0a104.53,104.53,0,0,0,90.56,44.68c53.33-2.23,95-47.07,95-100.46V181.43A41.39,41.39,0,0,0,339.94,140ZM193,305.54a16.25,16.25,0,1,1,16.25-16.24A16.28,16.28,0,0,1,193,305.54Z"/><path class="cls-1" d="M414.24,260.65V155.85a55.56,55.56,0,0,0-55.56-55.56H327.22c-.44,0-.83,0-1.24,0l-13.9,0c-1.18-3.68-2.49-7.12-3.89-10.38A106.56,106.56,0,0,0,302,77.74,100.13,100.13,0,0,0,282.2,53.41c-.28-.23-.53-.46-.81-.67,0-.05-.09-.09-.16-.16a.9.9,0,0,1-.19-.15l-.07,0-.19-.14,0,0-.27-.23-1.1-.85-.09-.08h0v0A77.45,77.45,0,0,0,237,35.35H131.11A196.12,196.12,0,0,1,243.75,0c108.81,0,197,88.2,197,197a196.18,196.18,0,0,1-39.18,117.93,123.72,123.72,0,0,0,12.61-51.61C414.24,262.43,414.24,261.54,414.24,260.65Z"/><path class="cls-1" d="M138.72,507.56h-16.5V472.87h16.11c7.08,0,11.45,3.52,11.45,9v.1a8.08,8.08,0,0,1-4.57,7.48c4,1.54,6.5,3.87,6.5,8.53v.1C151.71,504.39,146.55,507.56,138.72,507.56Zm3.47-24.43c0-2.28-1.78-3.57-5-3.57h-7.54v7.33h7c3.37,0,5.5-1.09,5.5-3.66ZM144.12,497c0-2.33-1.73-3.77-5.65-3.77h-8.82v7.63h9.07c3.37,0,5.4-1.19,5.4-3.77Z"/><path class="cls-1" d="M158.35,507.56V472.87H166v34.69Z"/><path class="cls-1" d="M191.51,508.16c-10.7,0-18.39-8-18.39-17.85v-.1c0-9.86,7.79-17.94,18.49-17.94s18.39,8,18.39,17.85v.09C210,500.08,202.22,508.16,191.51,508.16Zm10.51-18c0-5.94-4.36-10.9-10.51-10.9s-10.41,4.86-10.41,10.81v.09c0,6,4.36,10.91,10.51,10.91S202,496.26,202,490.31Z"/><path class="cls-1" d="M216.79,507.56V472.87h7.63v27.75h17.3v6.94Z"/><path class="cls-1" d="M262.34,508.16c-10.7,0-18.39-8-18.39-17.85v-.1c0-9.86,7.79-17.94,18.49-17.94s18.39,8,18.39,17.85v.09C280.83,500.08,273.05,508.16,262.34,508.16Zm10.51-18c0-5.94-4.36-10.9-10.51-10.9s-10.4,4.86-10.4,10.81v.09c0,6,4.36,10.91,10.5,10.91s10.41-4.86,10.41-10.81Z"/><path class="cls-1" d="M304.33,508.16c-10.81,0-18.24-7.59-18.24-17.85v-.1a17.81,17.81,0,0,1,18.19-17.94c6.24,0,10,1.69,13.63,4.76l-4.81,5.8c-2.68-2.23-5.06-3.52-9.07-3.52-5.55,0-10,4.91-10,10.81v.09c0,6.35,4.36,11,10.5,11a12.23,12.23,0,0,0,7.19-2.08v-5h-7.68v-6.59h15.07v15.07A22.55,22.55,0,0,1,304.33,508.16Z"/><path class="cls-1" d="M342.4,493.73v13.83h-7.64V493.88l-13.33-21h8.92l8.28,13.93,8.43-13.93h8.67Z"/><path class="cls-1" d="M13.12,415.7a16.57,16.57,0,0,1,5.41.82,11.72,11.72,0,0,1,4.1,2.35,10.59,10.59,0,0,1,2.61,3.69,12.37,12.37,0,0,1,.91,4.85,12.22,12.22,0,0,1-.89,4.75,9.83,9.83,0,0,1-2.59,3.6A11.7,11.7,0,0,1,18.56,438a17.42,17.42,0,0,1-5.44.8H7.24v8.37H0V415.7Zm-.47,16.51A6.77,6.77,0,0,0,17,431a4.18,4.18,0,0,0,1.53-3.48A4.26,4.26,0,0,0,17,424a6.71,6.71,0,0,0-4.35-1.25H7.24v9.46Z"/><path class="cls-1" d="M37.25,415.7h8.89l11.58,31.51H50.33l-2.07-5.55H35.09l-2,5.55H25.68Zm9,20.22-4.52-12.37-4.56,12.37Z"/><path class="cls-1" d="M62.7,415.7l8.23,22.9,8.14-22.9h7.86L75.36,447.21H66.47L54.89,415.7Z"/><path class="cls-1" d="M95.68,415.7h8.89l11.57,31.51h-7.39l-2.07-5.55H93.51l-2,5.55H84.1Zm9,20.22-4.52-12.37-4.56,12.37Z"/><path class="cls-1" d="M132.83,415.7q6.21,0,9.62,2.7a9.23,9.23,0,0,1,3.42,7.69,9.8,9.8,0,0,1-1.79,6,10.25,10.25,0,0,1-5,3.53L146,447.21h-8.51l-6.21-10.63h-4.47v10.63h-7.25V415.7Zm-.18,15.19a6.73,6.73,0,0,0,4.14-1.11,3.89,3.89,0,0,0,0-6.06,6.73,6.73,0,0,0-4.14-1.11h-5.88v8.28Z"/><path class="cls-1" d="M159.65,415.7h8.89l11.57,31.51h-7.39l-2.07-5.55H157.48l-2,5.55h-7.38Zm9,20.22-4.51-12.37-4.57,12.37Z"/><path class="cls-1" d="M201,415.7h7.24v22.9a8.8,8.8,0,0,1-2.54,6.78c-1.69,1.57-4.16,2.35-7.39,2.35a25,25,0,0,1-5-.57v-7a18.18,18.18,0,0,0,3.57.43,4,4,0,0,0,3.18-1.09A5.42,5.42,0,0,0,201,436Z"/><path class="cls-1" d="M222.21,415.7h8.89l11.57,31.51h-7.39l-2.07-5.55H220l-2,5.55h-7.38Zm9,20.22-4.51-12.37-4.57,12.37Z"/><path class="cls-1" d="M247.61,415.7l7,13.5,7-13.5h8.52l-11.86,21.49v10H251v-10L239.09,415.7Z"/><path class="cls-1" d="M278,415.7h8.89l11.58,31.51h-7.39L289,441.66H275.83l-2,5.55h-7.39Zm9,20.22-4.52-12.37-4.56,12.37Z"/><path class="cls-1" d="M300.29,425a8.66,8.66,0,0,1,3.22-7.24c2.15-1.7,5.22-2.54,9.2-2.54s7.21.91,9.31,2.75a9.84,9.84,0,0,1,3.25,7.59h-7.43a4.13,4.13,0,0,0-1.27-3.15,5.94,5.94,0,0,0-4.1-1.17,6.28,6.28,0,0,0-3.57.87,2.81,2.81,0,0,0-1.27,2.47,2.68,2.68,0,0,0,.52,1.67,4.28,4.28,0,0,0,1.38,1.15,9.24,9.24,0,0,0,2,.77c.77.21,1.57.4,2.42.59,1.32.28,2.68.59,4.09.92a15.35,15.35,0,0,1,3.88,1.46,8.26,8.26,0,0,1,2.9,2.61,7.61,7.61,0,0,1,1.12,4.37,8.51,8.51,0,0,1-3.17,6.94q-3.18,2.61-9.76,2.61-6.74,0-10.09-2.77a9.25,9.25,0,0,1-3.36-7.53H307q.38,4.33,6.07,4.33a7.48,7.48,0,0,0,3.92-.85,2.62,2.62,0,0,0,1.39-2.35,2.58,2.58,0,0,0-.54-1.69,4.14,4.14,0,0,0-1.48-1.09,12,12,0,0,0-2.19-.7c-.83-.19-1.7-.36-2.61-.52-1.29-.25-2.6-.53-3.93-.85a12,12,0,0,1-3.64-1.48,8,8,0,0,1-2.68-2.7A8.5,8.5,0,0,1,300.29,425Z"/><path class="cls-1" d="M331.24,415.7h7.25v31.51h-7.25Z"/><path class="cls-1" d="M345.07,415.7h9.13l11.52,20.93V415.7H373v31.51h-9.07l-11.58-21v21h-7.24Z"/><path class="cls-1" d="M392.91,447.68a15.32,15.32,0,0,1-6.05-1.17,14.18,14.18,0,0,1-4.75-3.3,14.73,14.73,0,0,1-3.1-5.1,19,19,0,0,1-1.11-6.66A16.51,16.51,0,0,1,382.49,420a15.31,15.31,0,0,1,5.1-3.48,16.14,16.14,0,0,1,6.45-1.27,19,19,0,0,1,5.34.72,14.66,14.66,0,0,1,4.39,2.12,14.42,14.42,0,0,1,3.32,3.34,13.65,13.65,0,0,1,2.05,4.45h-8.71a5.64,5.64,0,0,0-2.54-2.68,8.24,8.24,0,0,0-4-.95,8.37,8.37,0,0,0-3.43.69,7.8,7.8,0,0,0-2.66,1.9,8.58,8.58,0,0,0-1.69,2.87,10.63,10.63,0,0,0-.59,3.58,8.64,8.64,0,0,0,9.41,9.4,10.48,10.48,0,0,0,4.35-.84,6.21,6.21,0,0,0,2.8-2.4v-2.54H395v-5.22h14.34v17.54h-7.24v-3a11.38,11.38,0,0,1-3.95,2.54A14.5,14.5,0,0,1,392.91,447.68Z"/><path class="cls-1" d="M415.39,415.7h7.25v13.35H436V415.7h7.25v31.51H436V435.64h-13.4v11.57h-7.25Z"/><path class="cls-1" d="M449.87,415.7H473v6.44h-15.9v6.26h13.13v6.21H457.11v6.16H473v6.44H449.87Z"/></g></g></svg>