<svg xmlns="http://www.w3.org/2000/svg" xmlns:xlink="http://www.w3.org/1999/xlink" viewBox="0 0 310.42 351.19"><defs><style>.cls-1{fill:url(#linear-gradient);}.cls-2{fill:#fff;}</style><linearGradient id="linear-gradient" x1="29.08" y1="-12.87" x2="229.79" y2="334.77" gradientUnits="userSpaceOnUse"><stop offset="0" stop-color="#009fa2"/><stop offset="1" stop-color="#0d386b"/></linearGradient></defs><g id="Layer_2" data-name="Layer 2"><g id="Layer_1-2" data-name="Layer 1"><path class="cls-1" d="M310.42,120.06V228.63a119.15,119.15,0,0,1-78.73,112.08h0a118.06,118.06,0,0,1-30.82,6.64h0a306,306,0,0,1-48.43,3.84,98.92,98.92,0,0,1-83.53-45.85c-.4-.6-.78-1.2-1.15-1.82a95.19,95.19,0,0,1-6-11.57,30.62,30.62,0,0,0-3.88-10.29A90.71,90.71,0,0,0,61.73,292a31.15,31.15,0,0,1-25.08,36.26,30.69,30.69,0,0,1-5.54.5A31.11,31.11,0,0,1,0,297.6V9.25A9.24,9.24,0,0,1,9.25,0H131.88c.65,0,1.32,0,2,0a76.53,76.53,0,0,1,75.63,64.87h47A55.21,55.21,0,0,1,310.42,120.06Z"/><path class="cls-2" d="M98.8,255a8.31,8.31,0,0,1-15,4.86,8.18,8.18,0,0,1-1.55-4.35s0,0,0,0c0-.16,0-.33,0-.49a8.31,8.31,0,0,1,16.62,0Z"/><path class="cls-2" d="M278.6,143.49a42.12,42.12,0,0,0-40.93-37.84H184.28a83,83,0,0,0-82.93-78.86H21.18v9.49A22.54,22.54,0,0,0,62.94,48h8.71v0H101.8a61.8,61.8,0,0,1,61.66,57.65c.09,1.37.14,2.75.14,4.15q0,2.74-.24,5.43A61.8,61.8,0,0,1,101.8,171.6H63a22.54,22.54,0,0,0-41.76,11.76v9.49H71.69v-.08h33.13c2-.07,4-.23,6-.46a83.07,83.07,0,0,0,72.1-66.85h54.31a21.57,21.57,0,0,1,21.55,21.31v77a81,81,0,0,1-148.61,44.69,24.19,24.19,0,1,0-20.45,11.28,24.81,24.81,0,0,0,3.68-.28,101.08,101.08,0,0,0,185.42-54.89c0-.27,0-.53,0-.8v-76A40.48,40.48,0,0,0,278.6,143.49ZM105.43,260.34a16.24,16.24,0,0,1-15.36,11c-.53,0-1.06,0-1.58-.07A16.25,16.25,0,1,1,106.32,255,16,16,0,0,1,105.43,260.34Z"/><path class="cls-2" d="M135,109.77a33,33,0,0,1-32.28,33H65.94V76.82h36.81A32.94,32.94,0,0,1,135,109.77Z"/><path class="cls-2" d="M148.26,239.92l-1.44,2.32A9.9,9.9,0,0,1,148.26,239.92Z"/><path class="cls-2" d="M214.18,175.06V241.7a14,14,0,0,1-14,14H155.62a9.61,9.61,0,0,1-8.82-13.43l0,0,1.44-2.32,39.68-64.11,1.84-3a18.6,18.6,0,0,1,14.27-7.38h1A9.61,9.61,0,0,1,214.18,175.06Z"/></g></g></svg>