<?xml version="1.0" standalone="no"?>
<!DOCTYPE svg PUBLIC "-//W3C//DTD SVG 20010904//EN"
 "http://www.w3.org/TR/2001/REC-SVG-20010904/DTD/svg10.dtd">
<svg version="1.0" xmlns="http://www.w3.org/2000/svg"
 width="1080.000000pt" height="1080.000000pt" viewBox="0 0 1080.000000 1080.000000"
 preserveAspectRatio="xMidYMid meet">

<g transform="translate(0.000000,1080.000000) scale(0.100000,-0.100000)"
fill="#000000" stroke="none">
<path d="M5140 10723 c-237 -9 -437 -26 -512 -44 -46 -11 -126 -24 -178 -29
-52 -5 -108 -13 -125 -19 -94 -29 -148 -42 -213 -51 -41 -6 -97 -21 -126 -35
-29 -14 -65 -25 -80 -25 -15 0 -48 -9 -74 -20 -26 -11 -87 -31 -136 -45 -50
-14 -104 -32 -120 -41 -17 -9 -56 -25 -86 -36 -30 -11 -59 -24 -64 -29 -6 -5
-17 -9 -25 -9 -26 0 -155 -52 -167 -67 -7 -8 -29 -19 -50 -24 -48 -13 -302
-135 -329 -158 -11 -10 -40 -26 -65 -36 -25 -11 -58 -29 -73 -42 -16 -13 -32
-23 -37 -23 -5 0 -29 -13 -53 -30 -25 -16 -52 -30 -60 -30 -9 0 -28 -11 -43
-25 -15 -14 -30 -25 -34 -25 -16 0 -51 -43 -42 -52 6 -6 490 -9 1328 -9 1439
1 1682 -6 1799 -52 22 -8 65 -21 95 -28 30 -6 71 -20 90 -29 19 -10 58 -25 85
-33 72 -22 308 -136 322 -156 6 -10 29 -23 50 -29 21 -6 54 -25 73 -42 19 -17
69 -57 110 -90 41 -33 80 -65 85 -70 6 -6 18 -19 29 -29 10 -10 26 -26 35 -34
31 -30 136 -145 168 -183 18 -22 44 -52 58 -69 39 -46 125 -166 146 -205 11
-19 42 -71 70 -115 28 -44 60 -102 71 -130 11 -27 25 -57 32 -65 7 -8 19 -31
26 -50 7 -19 24 -60 38 -90 13 -30 42 -98 63 -150 22 -52 47 -100 56 -107 12
-9 180 -12 683 -13 l667 0 159 -30 c87 -16 189 -40 225 -53 127 -46 309 -136
350 -173 14 -13 31 -24 37 -24 30 0 351 -326 352 -357 0 -6 8 -18 19 -25 10
-7 28 -33 41 -58 12 -25 30 -54 39 -65 34 -39 113 -259 163 -450 l23 -90 2
-1420 c1 -1496 -5 -1931 -32 -2050 -9 -38 -20 -108 -25 -155 -9 -92 -63 -303
-112 -440 -17 -47 -33 -98 -37 -115 -5 -16 -18 -49 -29 -72 -12 -23 -19 -48
-16 -56 7 -20 42 -10 56 17 6 11 24 37 40 57 16 20 37 50 46 67 9 16 34 61 55
99 21 37 51 92 67 122 16 29 35 61 43 70 7 9 22 36 32 61 10 25 26 54 35 65 9
11 23 36 30 55 7 19 28 67 46 105 69 149 84 184 84 195 0 6 9 28 19 49 11 20
28 62 39 92 11 30 30 79 42 109 12 30 37 105 57 165 19 61 41 129 49 153 8 23
14 52 14 63 0 11 9 37 20 59 11 22 20 51 20 65 0 14 13 78 29 143 48 197 89
461 110 709 14 156 14 779 1 948 -11 140 -18 189 -51 365 -12 63 -27 156 -34
205 -7 50 -20 115 -28 145 -8 30 -24 97 -36 148 -12 51 -35 132 -50 180 -16
48 -38 121 -51 162 -12 41 -32 98 -45 125 -13 28 -30 74 -39 104 -9 29 -20 59
-26 66 -5 7 -24 49 -40 95 -16 46 -34 88 -39 94 -5 6 -17 31 -27 56 -9 25 -23
52 -31 61 -7 9 -21 39 -31 67 -10 27 -25 58 -33 68 -7 9 -23 38 -34 63 -12 25
-29 60 -39 76 -66 114 -109 187 -134 235 -17 30 -39 64 -51 74 -12 11 -21 25
-21 32 0 7 -16 33 -36 59 -19 26 -40 58 -46 71 -6 13 -14 24 -18 24 -8 0 -50
58 -85 117 -24 39 -67 92 -112 137 -18 18 -33 38 -33 44 0 7 -22 38 -50 69
-75 87 -198 225 -227 255 -7 7 -34 35 -60 62 -27 27 -55 55 -63 63 -8 7 -45
42 -81 76 -149 140 -295 261 -327 271 -11 4 -24 16 -27 27 -4 10 -19 26 -35
34 -15 8 -30 18 -32 22 -1 5 -28 25 -58 45 -30 21 -66 45 -80 55 -14 9 -38 29
-55 44 -16 15 -48 36 -70 48 -22 11 -58 34 -80 51 -22 16 -53 36 -70 44 -16 8
-49 28 -72 45 -24 17 -47 31 -53 31 -5 0 -30 15 -54 34 -24 18 -57 36 -72 40
-15 4 -41 18 -57 32 -16 13 -41 27 -55 31 -15 3 -67 28 -117 55 -49 27 -107
55 -130 62 -22 8 -60 26 -85 40 -25 14 -53 26 -63 26 -9 0 -43 14 -74 30 -31
17 -68 30 -82 30 -14 0 -37 7 -51 15 -49 28 -86 42 -140 55 -30 7 -61 17 -68
23 -7 5 -54 21 -105 34 -50 13 -105 28 -122 33 -107 31 -181 50 -196 50 -10 0
-53 11 -96 24 -43 14 -125 30 -183 36 -58 7 -143 20 -190 30 -47 11 -146 24
-220 29 -136 11 -670 20 -810 14z"/>
<path d="M1512 9066 c-12 -20 -26 -36 -31 -36 -6 0 -18 -15 -27 -32 -9 -18
-35 -51 -57 -73 -67 -65 -157 -167 -157 -177 0 -6 -12 -23 -27 -38 -45 -45
-86 -96 -103 -126 -15 -29 -63 -95 -90 -125 -8 -9 -33 -47 -55 -84 -22 -37
-50 -80 -63 -96 -13 -16 -34 -49 -47 -74 -14 -25 -29 -51 -35 -58 -23 -27 -60
-89 -60 -100 -1 -7 -12 -30 -25 -52 -14 -22 -38 -68 -54 -101 -15 -34 -33 -64
-39 -68 -6 -3 -18 -30 -27 -59 -10 -28 -25 -61 -35 -72 -10 -11 -26 -42 -35
-70 -9 -27 -22 -57 -29 -65 -7 -8 -19 -35 -26 -60 -8 -25 -23 -63 -36 -86 -12
-22 -29 -65 -38 -96 -9 -31 -27 -75 -41 -99 -14 -24 -25 -55 -25 -69 0 -14
-12 -56 -26 -95 -14 -38 -32 -95 -40 -125 -8 -30 -26 -91 -39 -135 -37 -122
-64 -240 -81 -345 -8 -52 -21 -127 -29 -167 -59 -287 -77 -696 -55 -1248 10
-266 53 -579 105 -785 10 -36 22 -92 27 -125 5 -33 18 -82 28 -110 10 -27 26
-84 35 -125 9 -41 21 -79 25 -85 5 -5 19 -49 33 -96 14 -47 30 -94 35 -105 14
-24 62 -150 62 -161 0 -4 11 -30 25 -57 14 -27 25 -56 25 -64 0 -8 13 -40 29
-71 34 -68 72 -150 96 -211 11 -25 24 -52 31 -60 6 -8 31 -53 54 -100 23 -47
47 -91 53 -99 6 -7 16 -21 22 -32 66 -117 129 -220 141 -230 8 -6 14 -17 14
-23 0 -6 20 -38 44 -71 25 -33 55 -75 68 -93 98 -140 162 -224 191 -251 15
-14 27 -29 27 -34 0 -11 120 -153 209 -247 39 -41 71 -78 71 -81 0 -4 7 -9 15
-13 21 -8 46 21 40 47 -9 45 -21 7240 -12 7322 1 14 -5 21 -19 23 -16 2 -27
-7 -42 -32z"/>
<path d="M2594 9070 c-328 -4 -414 -8 -427 -19 -14 -11 -17 -32 -17 -110 0
-155 35 -311 86 -386 13 -20 24 -40 24 -46 0 -15 91 -109 106 -109 7 0 23 -11
36 -24 34 -35 136 -91 192 -105 62 -15 193 -16 276 -1 70 12 190 68 230 106
14 14 46 43 71 67 26 23 50 52 53 64 4 12 21 26 38 32 52 18 1009 14 1204 -5
87 -8 175 -19 194 -24 126 -32 222 -61 263 -79 27 -12 53 -21 59 -21 22 0 283
-150 296 -170 7 -11 19 -20 27 -20 8 0 61 -42 117 -93 57 -51 112 -99 123
-107 12 -8 32 -31 45 -50 25 -37 66 -88 103 -129 12 -13 30 -42 40 -65 10 -22
26 -50 36 -61 10 -11 27 -38 38 -60 61 -123 83 -175 97 -222 8 -28 20 -61 26
-72 6 -12 24 -85 41 -164 47 -220 50 -474 10 -642 -5 -22 -16 -74 -24 -115 -9
-41 -28 -112 -45 -156 -34 -96 -142 -314 -154 -314 -5 0 -16 -16 -23 -35 -8
-19 -28 -49 -43 -67 -16 -18 -33 -41 -38 -50 -26 -48 -178 -206 -263 -273 -28
-22 -51 -43 -51 -48 0 -4 -12 -12 -26 -17 -14 -6 -45 -25 -67 -44 -23 -18 -53
-37 -67 -41 -14 -4 -32 -13 -40 -20 -19 -16 -205 -105 -220 -105 -6 0 -27 -8
-48 -19 -34 -17 -145 -44 -317 -77 -54 -10 -213 -13 -679 -14 l-609 0 -76 79
c-117 122 -200 170 -353 202 -111 23 -315 -21 -407 -89 -24 -17 -47 -32 -52
-32 -39 0 -157 -166 -193 -273 -40 -115 -58 -389 -28 -419 10 -10 262 -13
1225 -13 l1212 0 115 23 c63 13 135 29 160 37 25 8 68 21 95 29 83 23 228 80
257 100 15 10 45 22 66 27 39 8 138 63 176 97 12 10 42 26 68 36 25 9 49 23
52 31 3 8 34 33 71 55 36 23 65 46 65 51 0 5 14 18 32 29 42 26 240 221 292
288 22 30 55 73 73 95 18 23 53 78 79 122 26 44 53 87 60 95 21 25 105 191
131 259 13 35 30 76 38 91 7 14 25 74 40 131 40 164 44 176 63 199 l18 23 765
-2 c444 -1 787 -6 819 -11 67 -12 173 -56 219 -90 72 -54 181 -174 181 -198 0
-9 12 -33 26 -53 14 -20 30 -63 37 -96 14 -77 20 -2382 6 -2439 -6 -21 -15
-79 -20 -129 -5 -49 -17 -112 -25 -140 -21 -67 -30 -98 -48 -173 -9 -34 -27
-85 -41 -112 -14 -27 -25 -54 -25 -60 0 -11 -40 -99 -86 -194 -14 -27 -36 -62
-49 -78 -14 -16 -25 -35 -25 -41 0 -12 -75 -131 -102 -162 -9 -11 -30 -33 -45
-50 -16 -16 -37 -43 -48 -60 -24 -38 -153 -174 -225 -238 -30 -27 -68 -61 -85
-76 -43 -39 -102 -81 -114 -81 -6 0 -15 -9 -21 -20 -6 -11 -33 -29 -60 -41
-27 -11 -56 -29 -66 -40 -9 -10 -22 -19 -29 -19 -6 0 -31 -13 -56 -29 -24 -16
-66 -37 -94 -46 -27 -10 -61 -25 -75 -34 -14 -9 -43 -23 -65 -30 -22 -7 -67
-23 -100 -36 -33 -13 -80 -26 -105 -30 -25 -4 -53 -11 -63 -17 -9 -5 -93 -20
-185 -34 -236 -34 -438 -34 -667 1 -93 15 -186 33 -205 40 -19 7 -57 17 -85
23 -68 13 -207 64 -280 101 -33 17 -68 31 -78 31 -10 0 -41 16 -70 35 -28 19
-56 35 -61 35 -5 0 -17 7 -26 15 -9 8 -40 28 -68 43 -68 36 -192 121 -192 131
0 4 -21 22 -47 39 -52 34 -222 201 -328 321 -76 87 -92 130 -68 175 73 139 83
179 83 326 0 123 -6 150 -61 267 -42 89 -68 125 -151 205 -46 44 -94 78 -144
103 -183 89 -447 83 -587 -13 -25 -18 -50 -32 -55 -32 -19 0 -155 -135 -168
-167 -8 -18 -19 -33 -24 -33 -29 0 -89 -192 -97 -310 -5 -72 -1 -101 22 -190
15 -58 33 -112 40 -120 7 -8 23 -35 35 -60 12 -24 48 -68 79 -97 31 -29 65
-61 76 -71 24 -23 143 -84 205 -105 25 -9 88 -18 140 -21 135 -7 152 -15 206
-97 24 -38 49 -69 54 -69 5 0 20 -17 33 -37 23 -36 331 -353 343 -353 7 0 59
-40 99 -76 12 -12 40 -32 62 -44 21 -13 52 -36 68 -51 17 -15 53 -39 82 -54
29 -14 55 -30 59 -36 3 -6 36 -25 72 -43 37 -18 85 -42 107 -53 22 -11 65 -32
95 -45 30 -14 84 -39 120 -55 36 -17 97 -38 135 -48 39 -10 79 -23 90 -30 12
-7 61 -22 110 -33 332 -74 462 -91 720 -91 210 0 419 15 510 38 22 6 90 22
152 36 62 14 142 37 178 50 36 14 74 25 85 25 11 0 75 26 142 59 68 32 139 64
158 71 19 7 44 21 55 31 11 9 44 30 73 45 108 58 128 70 184 107 32 21 58 42
58 48 0 5 12 15 28 21 25 11 133 99 192 158 15 14 44 41 65 60 71 63 229 240
241 269 6 15 19 31 27 34 8 3 21 17 29 31 7 13 39 62 71 109 31 46 57 88 57
94 0 5 8 18 19 27 18 16 75 127 164 316 24 52 59 142 76 200 18 58 41 124 52
148 10 23 19 54 19 67 0 14 11 76 24 138 51 234 51 237 51 1557 l0 1235 -24
70 c-61 181 -90 254 -107 275 -7 8 -26 42 -43 75 -17 33 -62 93 -101 134 -38
40 -70 77 -70 81 0 5 -19 20 -42 34 -24 15 -65 45 -93 67 -27 22 -77 54 -110
70 -33 17 -80 41 -105 55 -24 13 -56 24 -70 24 -14 0 -56 9 -94 20 -133 38
-240 42 -966 39 -543 -3 -700 -1 -717 9 -25 14 -29 27 -38 127 -8 84 -48 286
-74 370 -10 33 -23 81 -29 107 -6 25 -22 70 -35 100 -14 29 -32 73 -42 98 -10
25 -26 52 -36 61 -10 9 -26 39 -34 65 -9 27 -25 56 -35 65 -10 9 -32 45 -49
80 -26 54 -63 108 -124 179 -6 8 -25 32 -42 55 -33 44 -41 54 -150 166 -40 41
-82 82 -93 90 -11 8 -54 42 -96 77 -42 34 -80 62 -84 62 -5 0 -19 11 -32 25
-13 14 -28 25 -33 25 -5 0 -31 16 -56 35 -26 19 -60 39 -75 45 -15 5 -42 21
-59 34 -18 13 -50 29 -72 35 -22 6 -53 20 -70 31 -16 11 -36 20 -44 20 -7 0
-52 16 -100 35 -47 19 -113 41 -146 48 -33 8 -75 22 -92 31 -18 9 -47 16 -66
16 -18 0 -83 8 -143 17 -96 16 -199 18 -869 18 -418 0 -945 -2 -1171 -5z
m1576 -5747 c36 -14 74 -33 85 -43 11 -9 35 -26 53 -36 48 -27 110 -123 133
-207 40 -141 40 -145 12 -232 -30 -94 -51 -140 -75 -162 -10 -9 -18 -22 -18
-29 0 -15 -57 -64 -75 -64 -7 0 -18 -7 -26 -16 -22 -27 -83 -52 -162 -67 -102
-19 -213 -3 -289 43 -123 73 -154 106 -212 230 -27 59 -30 74 -29 165 0 89 3
106 28 155 37 75 96 170 105 170 4 0 18 9 31 20 53 46 99 68 175 84 43 10 84
20 89 21 24 8 115 -9 175 -32z"/>
<path d="M3913 3094 c-24 -14 -58 -49 -78 -79 -45 -69 -49 -141 -10 -199 14
-20 31 -49 40 -65 11 -23 27 -32 79 -46 73 -20 111 -17 179 14 65 30 89 75 95
179 4 73 2 86 -18 115 -66 97 -199 134 -287 81z"/>
<path d="M3422 7723 c-4 -1 -18 -4 -32 -7 l-25 -5 2 -868 2 -868 33 -5 c62
-10 883 -11 978 -1 117 13 288 62 353 101 27 17 52 30 56 30 13 0 153 114 192
156 44 48 99 124 99 138 0 5 9 19 19 30 36 40 88 186 101 286 18 135 6 318
-25 385 -13 28 -28 68 -35 90 -14 46 -70 144 -109 193 -58 73 -204 212 -229
219 -14 3 -41 16 -59 29 -55 37 -228 87 -313 91 -78 3 -994 9 -1008 6z"/>
<path d="M7007 5310 c-169 -35 -290 -141 -376 -328 -6 -13 -27 -44 -46 -69
-19 -25 -35 -51 -35 -58 0 -7 -7 -18 -16 -26 -9 -7 -28 -38 -44 -69 -16 -31
-35 -62 -44 -69 -9 -8 -16 -18 -16 -23 0 -5 -26 -48 -58 -96 -33 -48 -62 -98
-65 -112 -3 -14 -22 -44 -42 -67 -19 -23 -35 -44 -35 -49 0 -4 -15 -30 -33
-58 -19 -28 -47 -72 -63 -98 -16 -27 -56 -90 -89 -142 -33 -52 -78 -124 -100
-161 -22 -36 -66 -106 -97 -155 -32 -49 -58 -91 -58 -94 0 -3 -16 -28 -35 -55
-19 -26 -35 -53 -35 -58 0 -6 -7 -17 -16 -24 -9 -7 -26 -36 -38 -64 -13 -27
-30 -56 -40 -64 -9 -8 -33 -48 -52 -90 -47 -99 -50 -187 -11 -253 40 -67 104
-115 172 -127 38 -7 278 -11 681 -11 576 0 627 1 681 18 126 40 200 111 254
247 9 23 12 261 10 990 -3 1138 4 1072 -121 1138 -85 45 -126 49 -233 27z"/>
<path d="M3261 1899 c-6 -18 -11 -80 -11 -138 0 -140 -25 -284 -55 -321 -7 -8
-18 -32 -24 -52 -7 -20 -25 -54 -41 -75 -16 -21 -44 -58 -62 -81 -42 -56 -108
-120 -130 -127 -9 -4 -20 -14 -23 -24 -7 -24 -206 -117 -279 -130 -61 -11 -86
-25 -86 -46 0 -14 65 -59 164 -114 34 -18 79 -45 101 -60 22 -14 60 -35 85
-45 25 -11 54 -28 66 -38 11 -10 42 -25 69 -35 27 -9 63 -26 81 -38 17 -12 63
-32 100 -44 38 -13 76 -29 84 -35 26 -21 343 -141 465 -176 17 -5 50 -16 75
-24 48 -16 99 -29 305 -77 72 -17 155 -37 185 -46 30 -9 87 -19 125 -24 39 -5
106 -15 150 -23 44 -9 101 -15 126 -16 26 0 82 -8 125 -17 67 -15 142 -17 504
-18 425 0 469 2 755 41 66 10 149 20 185 24 36 4 82 14 104 24 21 9 54 16 73
16 30 0 272 51 384 80 45 12 78 45 61 62 -9 9 -55 9 -195 -1 -411 -30 -918
-22 -1162 19 -66 11 -151 25 -190 31 -172 27 -571 143 -702 205 -28 13 -55 24
-59 24 -13 0 -275 135 -292 150 -16 15 -97 66 -162 101 -16 9 -48 33 -70 53
-22 20 -45 36 -50 36 -6 0 -39 26 -74 58 -35 31 -94 84 -131 117 -72 64 -87
78 -130 130 -15 18 -37 43 -49 57 -11 13 -41 51 -65 84 -25 32 -56 75 -71 94
-14 19 -29 43 -33 52 -3 9 -18 36 -33 60 -41 64 -101 182 -135 265 -17 40 -35
73 -39 73 -4 0 -13 -14 -19 -31z"/>
</g>
</svg>
