<svg xmlns="http://www.w3.org/2000/svg" xmlns:xlink="http://www.w3.org/1999/xlink" viewBox="0 0 863.28 579.6"><defs><style>.cls-1,.cls-4,.cls-5{fill:none;}.cls-2{opacity:0.26;}.cls-3{clip-path:url(#clip-path);}.cls-4,.cls-5{stroke:#444;stroke-miterlimit:10;}.cls-4{stroke-width:3px;}</style><clipPath id="clip-path" transform="translate(71.27 45.61)"><rect class="cls-1" width="750" height="500"/></clipPath></defs><g id="Layer_2" data-name="Layer 2"><g id="OBJECTS"><g class="cls-2"><g class="cls-3"><path class="cls-4" d="M356.83-10c-11.15-3.7-19.62,4.67-28.44,9.64-8.28,4.66-17,6.58-20.67,16.68-1.5,4.1-1.85,8.66-4.09,12.42-1.65,2.78-4.2,4.88-6.69,6.93L278.53,50.79c-4,3.27-8.08,6.66-10.59,11.17s-3.08,10.49-.05,14.67c5.28,7.29,16.63,4.79,25.13,7.75,11.08,3.87,16.52,16.93,27.11,22-.72,5.66-.74,12.78,4.3,15.45,4.48,2.38,9.77-.48,14.45-2.43,5.43-2.26,11.69-3.26,17.16-1.1s9.65,8.17,8.31,13.89c-1.06,4.58-5.29,8.88-3.61,13.27.73,1.92,2.47,3.27,3.59,5,6.62,10.26-9,25.18,6.08,30.68,11.29,4.12,25,.4,34.31,10.56,9.08,9.88,4.59,27-3.09,36.34s-22,4-29,15.06c-1.21,1.91-1.95,4.09-3.16,6-4.23,6.72-13,8.81-18.94,14.1-8.3,7.41-9.83,19.92-16.79,28.6-4.5,5.61-10.94,9.24-16.64,13.63s-11.05,10.25-11.64,17.42c-.48,5.85,2.5,11.3,2.31,17.07-.21,6.51-2.53,11.36-1.63,18.27.28,2.15.73,4.4,2.17,6,1.85,2.07,4.82,2.62,7.34,3.78,10.51,4.85,13,20.23,23.62,24.72,5.72,2.4,13.08,1.25,17.5,5.61,3.7,3.66,3.55,9.95,1,14.51s-6.91,7.74-11.22,10.66a303.44,303.44,0,0,1-78.84,38.2c-1.82.57-3.8,1.13-5.58.44-3.23-1.24-3.72-5.48-5.37-8.52-2.81-5.18-9.46-7-15.33-6.64s-11.55,2.4-17.42,2.78c-20.35,1.29-36-16.48-51.81-29.3A126.94,126.94,0,0,0,127.6,397.2c-3.34-1-7-2-9.07-4.76-2.88-3.86-1.5-9.27-1.8-14.08a19.56,19.56,0,0,0-14.53-17.31c-4.07-1-8.32-.6-12.49-.81-17.78-.91-37-12.22-52-2.54-3.83,2.48-7.1,6.26-11.6,7-3.41.55-6.82-.81-10-2.15l-43.55-18.19" transform="translate(71.27 45.61)"/><path class="cls-4" d="M767.07,281.83c-10.08.69-18.89-6.2-28.34-9.76-11.28-4.25-23.69-3.76-35.7-4.87-29.78-2.75-58.35-15.6-88.26-15-23.8.47-46.68,9.5-67.47,21.1-10.12,5.65-20.08,12.1-27.36,21.13a54.28,54.28,0,0,0,27.11,86.19c17.08,5,35.33,1.3,53.1,2s37.88,8.43,42.91,25.49c.94,3.17,1.3,6.55,2.88,9.46,2.54,4.69,7.7,7.24,12.59,9.4,9.72,4.28,20.28,8.23,30.72,6.33,9.79-1.78,17.9-8.4,27-12.46a54.93,54.93,0,0,1,55,6.66" transform="translate(71.27 45.61)"/><path class="cls-4" d="M600.3-12.25c-8.84,9.37-18.24,18.48-24.55,29.72s-9.14,25.27-4,37.07,18,21.62,15.74,34.31c-.72,4.09-3,7.79-3.66,11.9-1.13,7.21,3.17,14.42,9,18.76S606,125.89,613,127.73c11,2.88,22.56,5.52,33.75,3.32s22-10.53,23.39-21.85c.66-5.29-.74-10.64-.56-16s2.74-11.3,7.91-12.64c4.28-1.1,9.16,1.31,13.1-.71,5.73-2.94,4-11.6,6.77-17.44,3.56-7.56,14.19-8.8,22-5.91s14.37,8.63,22.15,11.69A35.85,35.85,0,0,0,772,66" transform="translate(71.27 45.61)"/><path class="cls-5" d="M759.6,297.57c-17.06-7.5-35.85-9.9-54.34-12.22L662.46,280c-17.13-2.15-34.43-4.3-51.6-2.57a115.47,115.47,0,0,0-49.18,16.72c-9,5.57-17.37,12.64-22.16,22s-5.31,21.47.74,30.11c3.59,5.12,9.1,8.6,14.86,11,14.33,6.09,30.33,6.34,45.77,8.34s31.73,6.51,41.69,18.47c5.61,6.73,8.79,15.37,15.15,21.4,13.52,12.81,35.3,9.14,53,3.33s37.49-12.85,54.15-4.51" transform="translate(71.27 45.61)"/><path class="cls-5" d="M684.71,325.94c-4.18.16-8.52.82-12,3.19S667,336,668.18,340s5.59,6.44,9.78,7.28,8.56.61,12.69,1.7c7.86,2.07,14.4,8.79,22.53,8.77,14.17,0,17.34-17.69,6.86-25.33C712.16,326.63,693.79,325.61,684.71,325.94Z" transform="translate(71.27 45.61)"/><path class="cls-5" d="M705,310.67c-14.52-4.31-27.87-5.4-42.72-2.08s-29.9,18.43-20.8,34.26c6.35,11.06,19,14,30.13,17.95,8.86,3.15,15.18,9.14,23.44,13.06,12.1,5.73,27,3.79,38.55-2.38,9.56-5.12,21.58-17.9,18.06-29.78-3.27-11-17.14-19.08-26.79-23.66A136.57,136.57,0,0,0,705,310.67Z" transform="translate(71.27 45.61)"/><path class="cls-5" d="M762.44,320.14c-21.82-10-44-19.39-67.39-24.83s-48.06-6.74-71.21-.47c-9,2.43-17.84,6.11-24.56,12.52s-10.94,16-9.18,25.08,9,16.21,17.1,20.64,17.17,6.7,25.85,9.85,17.35,7.48,22.93,14.84c2.07,2.73,3.65,5.81,5.91,8.38,6,6.86,16,9,25.09,8.17s17.73-4.23,26.5-6.77a147.4,147.4,0,0,1,54-5.26" transform="translate(71.27 45.61)"/><path class="cls-5" d="M606.77-6.12c-8.86,6-16.61,14.12-20.61,24.06s-3.82,21.87,2,30.88c3.33,5.18,8.3,9.21,11.21,14.64,3.69,6.89,3.59,15.14,3,22.94-.34,4.54-.76,9.36,1.31,13.42,2,3.89,6,6.36,9.88,8.27,5.66,2.74,11.91,4.74,18.15,4.06a22.6,22.6,0,0,0,17.5-12.23c2.48-5,3-10.75,4.34-16.18s4.08-11,9.15-13.43c3.07-1.44,6.65-1.5,9.73-2.92,10.12-4.65,9.56-20.22,18.29-27.13,5.89-4.66,14.46-4,21.49-1.39s13.34,7,20.47,9.36a39.93,39.93,0,0,0,35.13-5.29" transform="translate(71.27 45.61)"/><path class="cls-5" d="M630.27-6.09A65.46,65.46,0,0,0,614.78,5.16c-6.69,6.56-12.19,15.91-9.73,25,2,7.21,8.53,12.43,10.62,19.6,1.12,3.83.87,7.92,1.55,11.85s2.73,8.06,6.5,9.35a8.65,8.65,0,0,0,4.76.14c7.64-1.8,10.79-10.78,16.55-16.12,4.87-4.52,11.64-6.36,17.12-10.12,8.21-5.65,13-15.4,14.23-25.29s-.65-19.92-3.6-29.44" transform="translate(71.27 45.61)"/><path class="cls-5" d="M690.24-6.47a38.85,38.85,0,0,0,22.3,34.68c7.64,3.45,16.17,4.27,24.53,4.84,9,.61,18.68.84,26.52-3.72" transform="translate(71.27 45.61)"/><path class="cls-5" d="M711.66-7.88c-.33,5.85,4,11,8.9,14.21,6.8,4.45,15,6.42,23.14,6.6s16.2-1.37,24-3.49" transform="translate(71.27 45.61)"/><path class="cls-5" d="M644.44-5.8c.07,5.31-4.48,9.36-7.05,14a32.35,32.35,0,0,0-3.16,9.88c-.87,4.69-1,10.42,2.91,13.23,2.6,1.89,6.3,1.7,9.15.21a18.62,18.62,0,0,0,6.7-6.78,42.83,42.83,0,0,0,4.26-36.47" transform="translate(71.27 45.61)"/><path class="cls-5" d="M-13.62,107.09c3.77,5.52,9.18,9.69,14.73,13.4,18.26,12.21,39.4,20.56,61.33,22s44.6-4.24,62-17.6c8.22-6.3,15.24-14.2,24.14-19.5C162.74,97,179.87,96.05,196,93S229.48,83.55,237.11,69c3.35-6.41,4.56-13.95,9-19.65,6.31-8.1,17.58-10.58,25-17.65,7-6.61,9.79-16.39,15.16-24.34A44.32,44.32,0,0,1,313.51-11" transform="translate(71.27 45.61)"/><path class="cls-5" d="M-13.71,94.72c3.3,4.78,8,8.43,12.79,11.68,15.83,10.71,34.17,18.06,53.2,19.53S91,122.6,106.37,111.49q3.76-2.71,7.3-5.8c4.67-4.08,9-8.44,14-11.83a47.77,47.77,0,0,1,6.25-3.55c9.1-4.32,19.65-5.9,30-7.57,1.89-.31,3.77-.62,5.64-.95,8.29-1.49,16.9-3.85,24.12-8a34.59,34.59,0,0,0,13.18-12.73c3.19-5.58,4.55-12.19,8.55-17.31,5.68-7.26,15.36-10,21.7-16.49a35.64,35.64,0,0,0,6.07-9c2.21-4.36,4-9,6.54-13.15a38.7,38.7,0,0,1,22.93-17.37" transform="translate(71.27 45.61)"/><path class="cls-5" d="M-13.81,82.36c2.84,4,6.79,7.16,10.86,10,13.39,9.19,28.93,15.55,45.08,17A72.24,72.24,0,0,0,88.26,98.06a66.83,66.83,0,0,0,6.6-4.88c4.18-3.57,7.68-7.64,11.82-10.89a39.18,39.18,0,0,1,5.18-3.45c7.63-4.29,17-6,26.15-7.48,1.67-.27,3.34-.54,5-.83,7.37-1.26,15-3.13,21.5-6.6a31.61,31.61,0,0,0,12-10.79c3-4.77,4.54-10.44,8.09-15,5-6.44,13.15-9.32,18.38-15.33A32.32,32.32,0,0,0,208,14.69c1.76-3.9,3.16-8,5.12-11.79a33.3,33.3,0,0,1,18.65-16.43" transform="translate(71.27 45.61)"/><path class="cls-5" d="M-13.9,70A36.15,36.15,0,0,0-5,78.23c11,7.68,23.68,13,37,14.5a62.37,62.37,0,0,0,38.17-8.11,44.41,44.41,0,0,0,5.91-4c3.68-3.06,6.39-6.83,9.65-10a32.52,32.52,0,0,1,4.1-3.34C96,63.13,104.16,61.28,112.14,60l4.36-.7c6.45-1,13.1-2.42,18.88-5.22a28.64,28.64,0,0,0,10.87-8.85c2.87-4,4.53-8.68,7.64-12.62C158.3,27,164.83,23.89,169,18.41a29.28,29.28,0,0,0,3.82-7.29c1.31-3.45,2.29-7.1,3.69-10.45,2.89-6.9,7.66-12.5,14.36-15.49" transform="translate(71.27 45.61)"/><path class="cls-5" d="M-14,57.62a31.45,31.45,0,0,0,7,6.52,64.87,64.87,0,0,0,28.82,12A52.63,52.63,0,0,0,52,71.19a27.91,27.91,0,0,0,5.22-3c3.2-2.56,5.12-6,7.49-9a25.24,25.24,0,0,1,3-3.25c4.71-4.2,11.7-6.17,18.5-7.29,1.24-.21,2.48-.39,3.72-.58,5.52-.81,11.2-1.71,16.25-3.82A26.06,26.06,0,0,0,116,37.28c2.7-3.13,4.52-6.91,7.18-10.28,3.77-4.77,8.73-8.06,11.73-13a26.07,26.07,0,0,0,2.7-6.43c.86-3,1.43-6.15,2.27-9.11,1.75-6.1,4.8-11.33,10.08-14.55" transform="translate(71.27 45.61)"/><path class="cls-5" d="M-14.09,45.25A27.79,27.79,0,0,0-9,50.06a49.8,49.8,0,0,0,20.7,9.47,43.14,43.14,0,0,0,22.25-1.78,15.85,15.85,0,0,0,4.53-2.11c2.7-2,3.84-5.19,5.32-8.07a19.76,19.76,0,0,1,1.95-3.15c3.25-4.18,9.05-6.26,14.67-7.2,1-.18,2.06-.32,3.09-.45,4.6-.59,9.3-1,13.63-2.44a23.88,23.88,0,0,0,8.57-5c2.54-2.31,4.51-5.16,6.73-7.94,3.14-4,6.52-7.44,8.41-11.87A23.46,23.46,0,0,0,102.39,4c.42-2.54.56-5.2.85-7.75.61-5.32,1.94-10.17,5.79-13.62" transform="translate(71.27 45.61)"/><path class="cls-5" d="M-14.19,32.89a35.3,35.3,0,0,0,30,11.43,8.36,8.36,0,0,0,3.83-1.19c3.07-2.13,2.58-6.75,4-10.18,1.76-4.16,6.39-6.36,10.84-7.12s9-.43,13.45-1.36C58.87,22.18,67.37,11.53,67.2.4c-.1-6.5-2.65-13.66.93-19.09" transform="translate(71.27 45.61)"/><path class="cls-5" d="M-32,306.91c9.61,12.26,20.85,25.47,36.3,27.3,12.66,1.5,24.92-5.18,37.66-5.44,12.24-.26,23.79,5.38,35.91,7.13,16.9,2.45,34.34-2.93,48.52-12.47,24.31-16.37,39.62-45.34,39.44-74.65-.06-10.43-1.94-21,0-31.22,1.49-7.67,5.07-14.76,7.54-22.18a79.93,79.93,0,0,0,2-43.31c-.94-4-2.25-8-5-11-5.06-5.47-13.76-6-20.83-3.63s-13,7.1-19.35,11.1c-25.37,16.09-56.58,20.54-86.61,19.5-9.32-.32-18.74-1.15-27.56-4.2-11.88-4.1-22-12-31.93-19.72a18.34,18.34,0,0,0-14.92-3.57c-5.33,1-10,4.09-14.2,7.57A72.84,72.84,0,0,0-70.76,203.8c.07,8.67,1.72,17.25,3.75,25.68C-60.52,256.41-49.12,285.11-32,306.91Z" transform="translate(71.27 45.61)"/><path class="cls-5" d="M25.39,179.85C15.81,177,7.31,171.37-1,165.72a16.08,16.08,0,0,0-12.22-2.46c-4.34.84-8.23,3.23-11.69,5.93a58.45,58.45,0,0,0-22.67,44,88.76,88.76,0,0,0,2.45,20.94c5.46,21.1,14.27,43.71,27.76,60.91,7.63,9.73,16.65,20,28.9,21.64,10,1.3,19.8-3.64,29.91-3.92s19.38,3.54,29.14,4.39c13.61,1.2,27.55-3.63,39.17-11.32C129,293,141.71,271,142.4,248.15c.23-8.11-1-16.31.69-24.27,1.27-6,4.06-11.58,6-17.39a61.67,61.67,0,0,0,1.29-34c-.77-3.09-1.83-6.24-4-8.59-3.95-4.3-10.66-4.88-16.17-3.26s-10.21,5-15.17,7.91c-19.93,11.63-44.46,14.77-68,14.15C39.68,182.55,32.32,181.94,25.39,179.85Z" transform="translate(71.27 45.61)"/><path class="cls-5" d="M34.82,195.85c-7.29-1.67-14.12-5-20.8-8.54A14.35,14.35,0,0,0,4.5,186a25,25,0,0,0-9.2,4.3c-11,7.61-18.55,19.25-19.65,32.27a62.39,62.39,0,0,0,1.13,16.21c4.44,15.26,10.66,31.8,20.55,44.39,5.66,7.2,12.47,14.61,21.5,16,7.4,1.12,14.69-2.07,22.17-2.39,7.76-.34,15,1.69,22.38,1.64,10.3,0,20.77-4.29,29.81-10.15,14.24-9.24,24.27-24.36,25.81-40.68.54-5.8,0-11.65,1.36-17.32,1-4.36,3-8.4,4.4-12.6a43.54,43.54,0,0,0,.61-24.59,14.73,14.73,0,0,0-3-6.19c-2.84-3.13-7.57-3.77-11.52-2.89s-7.38,3-11,4.73c-14.51,7.1-32.35,9-49.42,8.78A75.68,75.68,0,0,1,34.82,195.85Z" transform="translate(71.27 45.61)"/><path class="cls-5" d="M44.25,211.84A79.45,79.45,0,0,1,29,208.9a14.58,14.58,0,0,0-6.82-.24,24.24,24.24,0,0,0-6.7,2.66C7.07,216,.63,222.92-1.14,231.9a36.77,36.77,0,0,0-.18,11.47c3.4,9.42,7,19.88,13.33,27.86,3.69,4.69,8.28,9.2,14.11,10.32,4.77.92,9.56-.53,14.43-.87,5.51-.39,10.54-.16,15.61-1.11,7-1.31,14-5,20.45-9,9.19-5.7,16.59-13.87,19-23.69.84-3.48,1-7,2-10.37.81-2.7,2-5.22,2.83-7.81a25.47,25.47,0,0,0-.07-15.24,10.45,10.45,0,0,0-2-3.79,8.59,8.59,0,0,0-6.86-2.51,30.6,30.6,0,0,0-6.82,1.55c-9.06,2.61-20.22,3.21-30.81,3.41C50.64,212.19,47.35,212.09,44.25,211.84Z" transform="translate(71.27 45.61)"/><path class="cls-5" d="M20.57,248c2.38,3.58,3.44,8,6.12,11.34a14.78,14.78,0,0,0,13.4,5.31c7.7-1.12,13.09-8,19.93-11.68,4.11-2.22,8.93-3.38,12.19-6.71,12.87-13.12-6.86-23.26-18.53-18.42C42.27,232.56,20.74,230.75,20.57,248Z" transform="translate(71.27 45.61)"/><path class="cls-5" d="M293.33,113.35c5.21,6.06,8.25,13.68,13,20.1s12.38,11.85,20.22,10.31c2.18-.43,4.33-1.39,6.53-1.11,3.78.47,6.18,4.3,7.3,7.94,2.79,9,1.17,18.72,1.74,28.13s4.53,19.93,13.46,23c3.89,1.33,8.46,1.12,11.68,3.69,5.89,4.71,2.62,14.45-2.64,19.85-7.49,7.67-17.7,12.07-25.89,19-11.51,9.7-18.43,23.77-28.9,34.59a70.45,70.45,0,0,1-93.8,6.66c-8.66-6.72-15.63-15.36-22.14-24.19-2.33-3.14-4.67-6.47-5.35-10.32-.61-3.4.14-6.88,1-10.24A214.24,214.24,0,0,1,199.17,211c2.23-5.49,4.72-11,5.34-16.88.64-6.14-.8-12.27-2-18.32-3.33-16.59-4.68-35.06,4.57-49.22C223,102.16,272.18,88.79,293.33,113.35Z" transform="translate(71.27 45.61)"/><path class="cls-5" d="M225.93,148.46c10.64-18.76,45.73-28.8,62.19-12.32,4,4,6.59,9.2,10.28,13.59s9.33,8.2,15,7.42c1.59-.22,3.15-.81,4.74-.52,2.94.53,4.89,3.47,5.94,6.27,2.15,5.72,2.05,11.95,2.09,18.16,0,1.36,0,2.7.06,4,.26,7.79,1.95,15.37,6.88,18.06,2.18,1.19,4.65,1.47,6.54,3.45,3.44,3.63,1.35,10.1-2.32,14-5.21,5.49-12.18,8.84-17.78,13.87a66.87,66.87,0,0,0-9.64,11.41c-3.25,4.59-6.36,9.33-10.15,13.46a51.4,51.4,0,0,1-31.35,16.07,48.38,48.38,0,0,1-34.89-9c-6.49-4.88-11.46-11.51-15.83-18.21-1.56-2.38-3.1-4.87-3.53-7.71a20.2,20.2,0,0,1,.74-7.55c.71-3,1.5-6,2.35-8.94q1.91-6.64,4.24-13.1c1.47-4.08,3.09-8.16,3.44-12.5.37-4.52-.66-9-1.55-13.51C221,172.6,219.88,159.13,225.93,148.46Z" transform="translate(71.27 45.61)"/><path class="cls-5" d="M244.79,170.37c5.3-13.17,26.33-19.83,38.12-11.45,2.84,2,4.92,4.74,7.56,7.1s6.27,4.54,9.78,4.52a10.11,10.11,0,0,1,3,.07c2.1.62,3.6,2.63,4.58,4.6,2,4,2.5,8.6,2.57,13.22q0,1.56,0,3c-.08,6.16-.73,10.72.29,13.13.43,1,1.16,1.54,1.4,3.22,1.53,2,.07,5.74-2,8.07-2.94,3.31-6.68,5.6-9.69,8.75a44.07,44.07,0,0,0-5.18,7,88.15,88.15,0,0,1-5.48,8.17,32.09,32.09,0,0,1-17.08,10.88c-7.09,1.81-15.26,1.14-21.61-3.37-4.31-3.05-7.27-7.67-9.52-12.24a14.66,14.66,0,0,1-1.71-5.09,16.11,16.11,0,0,1,.52-4.87c.42-1.94.89-3.87,1.35-5.79.71-2.87,1.42-5.72,2.17-8.53a36.63,36.63,0,0,0,1.54-8.12,39,39,0,0,0-1.09-8.7C242.75,186,241.92,177.53,244.79,170.37Z" transform="translate(71.27 45.61)"/><path class="cls-5" d="M263.66,192.28c.32,7.49,3.14,14.84,2.41,22.29-.24,2.44-.86,4.86-.77,7.31s1.07,5.06,3.2,6.27c2.73,1.53,6.34.14,8.34-2.26s2.79-5.54,3.61-8.56,1.78-6.15,4-8.35c4.91-4.88,10.35-5,10.1-13.18a14,14,0,0,0-6.27-11.2C280.45,179.58,263.15,180.44,263.66,192.28Z" transform="translate(71.27 45.61)"/><path class="cls-5" d="M166.07,319.59a190.77,190.77,0,0,0-16,26.88c-1.8,3.67-3.52,7.55-3.55,11.64-.06,9.59,8.71,16.58,16.62,22l40.16,27.55c7.07,4.84,14.51,9.83,23,10.79,8.79,1,18.21-2.41,26.25,1.29,3.4,1.56,6.15,4.26,9.41,6.08,11.3,6.31,25.47.91,36.45-5.93,4.54-2.84,9.39-6.74,9.49-12.09.11-5.78-5.48-10-10.91-12.06s-11.5-3-15.83-6.82c-8.19-7.28-6-20.26-7.65-31.09-2.13-14-11.71-25.94-23.25-34.11-12-8.46-29-18.33-42.92-23.29C190.49,294.42,175.32,306.61,166.07,319.59Z" transform="translate(71.27 45.61)"/><path class="cls-5" d="M182.37,338.44a117,117,0,0,0-7.68,15.25,14.36,14.36,0,0,0-1.37,6.42c.52,5.61,6.19,9.32,11.18,12.31,8.39,5.05,16.72,10.33,24.92,15.82,4.33,2.89,8.81,6,13.79,7s10.26-.22,14.95,2c2,.92,3.68,2.37,5.64,3.34,6.75,3.37,15,.42,21.48-3.6,3-1.86,5.91-4.35,6.35-7.62.47-3.6-2.08-6.52-4.76-8.34s-5.82-3.11-8.23-5.83c-4.53-5.1-4.28-13-6.18-19.5a30,30,0,0,0-6.87-11.8,42.75,42.75,0,0,0-10-7.88c-8.18-4.72-19.28-9.8-28.33-11.82C196.48,321.72,187.53,329.38,182.37,338.44Z" transform="translate(71.27 45.61)"/><path class="cls-5" d="M198.68,357.29a6.67,6.67,0,0,0,1.44,4.82c1.43,1.6,3.69,2.06,5.75,2.62A39,39,0,0,1,220.12,372a18.64,18.64,0,0,0,3.65,2.6,8.88,8.88,0,0,0,8.37-.67c9.59-6,2.56-20.64-5.79-24.08S199.33,344.26,198.68,357.29Z" transform="translate(71.27 45.61)"/><path class="cls-5" d="M-12.15,372.08c10.49,13.24,30.53,12.73,47.16,9.74s35.27-6.86,49.24,2.65C95,391.8,99.9,405.29,109.72,413.83c10.33,9,24.74,11.41,36.57,18.29,19.14,11.14,32.94,34.34,55.08,34.9,6.31.16,12.58-1.68,18.88-1.19,10,.79,18.57,7.28,27.93,11,20.86,8.28,44.78,2.26,64.88-7.73s38.27-23.78,59.06-32.24,46.06-10.74,64.56,2c30,20.59,27,67.13,50.55,94.83" transform="translate(71.27 45.61)"/><path class="cls-5" d="M276.37,509.76a765.8,765.8,0,0,1,66.3-40.26c13.15-7.11,26.79-13.92,41.56-16.25s31,.42,42.06,10.51c8.64,7.91,13.13,19.25,17.34,30.18q3.24,8.43,6.49,16.84" transform="translate(71.27 45.61)"/><path class="cls-5" d="M317.79,510.83l28-20.27c7.15-5.19,14.39-10.42,22.59-13.71s17.57-4.47,25.84-1.39c13.57,5.06,20.63,19.66,26.37,33" transform="translate(71.27 45.61)"/><path class="cls-5" d="M-14.87,400.74c13.11,5.94,28.31,2.79,42.43,0s29.81-4.8,42,2.85c4.24,2.66,7.74,6.34,11.38,9.79,7.51,7.13,15.76,13.42,24,19.7,5.16,3.94,10.37,7.91,16.29,10.58,3.63,1.63,7.47,2.76,11.08,4.45,15.25,7.13,24.83,23.52,40.46,29.79,15,6,33.38,1.66,47.12,10.25,9.56,6,14.7,17,17.66,27.92" transform="translate(71.27 45.61)"/><path class="cls-5" d="M-16.36,415.68c11.45,4.86,24.64,2.23,36.94-.06,7.51-1.4,15.51-2.55,23-1.76a32.22,32.22,0,0,1,13.55,4.29c3.72,2.25,6.82,5.34,10,8.25,6.63,6,13.88,11.37,21.09,16.74,4.53,3.37,9.09,6.78,14.22,9.13,3.15,1.44,6.47,2.46,9.59,4a54,54,0,0,1,12.58,8.93c7.11,6.38,13.61,13.65,22.22,17.37a50.72,50.72,0,0,0,13.42,3.36c9.34,1.28,19,1.54,27,6.58,8.29,5.24,12.93,14.66,15.78,23.88" transform="translate(71.27 45.61)"/><path class="cls-5" d="M-17.85,430.61c9.79,3.79,21,1.67,31.45-.12,6.4-1.1,13.19-2,19.6-1.31a29,29,0,0,1,11.56,3.52,59.37,59.37,0,0,1,8.68,6.72c5.76,4.91,12,9.31,18.19,13.77a76.62,76.62,0,0,0,12.14,7.68c2.67,1.25,5.47,2.16,8.11,3.47A46.8,46.8,0,0,1,102.5,472c6,5.47,11.4,11.72,18.52,15.12a43.57,43.57,0,0,0,11.1,3.3c7.74,1.42,15.78,2,22.53,6.31,7,4.51,11.16,12.3,13.9,19.86" transform="translate(71.27 45.61)"/><path class="cls-5" d="M-19.34,445.54c8.12,2.72,17.31,1.12,26-.18a65.09,65.09,0,0,1,16.17-.87,26.29,26.29,0,0,1,9.59,2.77,51.22,51.22,0,0,1,7.32,5.18c4.88,3.79,10.12,7.24,15.28,10.8a77.51,77.51,0,0,0,10.08,6.24c2.18,1,4.47,1.86,6.61,3a39.56,39.56,0,0,1,8.66,6.46c4.86,4.58,9.2,9.8,14.83,12.88a36.78,36.78,0,0,0,8.78,3.24c6.13,1.56,12.57,2.43,18.09,6.05,5.75,3.77,9.4,9.93,12,15.82" transform="translate(71.27 45.61)"/><path class="cls-5" d="M-20.83,460.47c6.46,1.65,13.64.57,20.46-.25a59,59,0,0,1,12.73-.41,23.79,23.79,0,0,1,7.61,2,44.26,44.26,0,0,1,6,3.64c4,2.69,8.24,5.19,12.38,7.84a92.4,92.4,0,0,0,8,4.79c1.71.85,3.47,1.56,5.12,2.48a32,32,0,0,1,6.7,5.23c3.75,3.67,7,7.87,11.14,10.63a31.17,31.17,0,0,0,6.45,3.18c4.53,1.71,9.37,2.87,13.67,5.79,4.47,3,7.63,7.56,10.16,11.78" transform="translate(71.27 45.61)"/><path class="cls-5" d="M-22.32,475.41c4.8.58,10,0,15-.32a55.54,55.54,0,0,1,9.3,0,24.42,24.42,0,0,1,5.62,1.23,41.1,41.1,0,0,1,4.62,2.11c3.13,1.57,6.36,3.13,9.47,4.86,2,1.11,3.93,2.29,5.93,3.35,1.23.65,2.47,1.26,3.63,2a24.66,24.66,0,0,1,4.74,4c2.63,2.77,4.8,5.95,7.44,8.38a28.42,28.42,0,0,0,4.14,3.12c2.93,1.85,6.16,3.32,9.23,5.52a59.56,59.56,0,0,1,8.29,7.76" transform="translate(71.27 45.61)"/><path class="cls-5" d="M-23.81,490.34a58.8,58.8,0,0,1,15.34.11c8.19.88,17.09,2.69,22.26,9.1,2.25,2.79,3.56,6.21,5.55,9.19a24,24,0,0,0,11.23,9" transform="translate(71.27 45.61)"/><path class="cls-5" d="M331.72,18.79c-3.82,5.51-5.25,12.48-9.5,17.67-5.29,6.46-14,9-20.4,14.36a10.53,10.53,0,0,0-3.12,3.78c-1.58,3.73.74,8.07,3.87,10.64,7.53,6.18,19.32,6.08,25.53,13.58,2.69,3.24,3.89,7.46,6.34,10.88,8.33,11.64,26.23,9.49,38.89,16.17a29.61,29.61,0,0,1,14.28,17.22c3.59,11.64.56,26.53,10,34.28a23.47,23.47,0,0,0,9.15,4.24,52,52,0,0,0,32.59-2.17c6.53-2.68,12.42-6.65,18.33-10.52,11.45-7.5,23.54-14.82,37.08-16.87,18-2.72,37.57,4.12,54.19-3.42,15.42-7,23.61-26.8,17.63-42.65C562.46,75.18,553,66.85,550,55.72c-3-10.91.76-22.56,6-32.56s12.11-19.24,16-29.85c.68-1.83,1.26-3.89.5-5.69a8.13,8.13,0,0,0-2.23-2.7C550-33.26,522.87-43,495.62-44.8s-54.62,4.1-80,14.28c-9.09,3.66-17.67,8-24.14,15.52C386.3-8.92,381.41-4.41,373.83-1.23,359.9,4.63,341.09,5.29,331.72,18.79Z" transform="translate(71.27 45.61)"/><path class="cls-5" d="M424.24-16.57c-7.14,2.87-13.91,6.23-19.12,12C400.93.05,397,3.51,391,6c-11,4.56-25.69,5.23-33.25,15.57-3.1,4.22-4.4,9.56-7.8,13.57-4.25,5-11,7.08-16.07,11.29a8.44,8.44,0,0,0-2.47,3c-1.26,2.85.44,6.17,2.73,8.16,5.52,4.79,14.26,4.9,18.85,10.71,2,2.51,2.86,5.75,4.68,8.4,6.19,9,19.63,7.68,29.25,13a27.57,27.57,0,0,1,12.11,13.25,45.13,45.13,0,0,1,2.26,8.56c1.18,6.36,2.18,12.67,7.52,16.66a22.53,22.53,0,0,0,7.51,3.29,43.79,43.79,0,0,0,25.45-.69c5.06-1.76,9.64-4.48,14.23-7.13a109.44,109.44,0,0,1,18.5-9A52.08,52.08,0,0,1,485.11,112c14.27-1.82,29.77,3.06,42.74-3.16,11.89-5.69,18.2-21,13.9-33.42-2.93-8.44-10-15-11.89-23.64s1.6-17.74,6-25.59,9.76-15.28,12.53-24c.46-1.47.88-3.11.26-4.57a6.87,6.87,0,0,0-1.75-2.2c-15.48-14.52-36.27-22.64-57.55-24.08-.52,0-1-.07-1.55-.09C466.11-29.94,444.36-24.66,424.24-16.57Z" transform="translate(71.27 45.61)"/><path class="cls-5" d="M432.81-2.63c-5.18,2.08-10.16,4.47-14.1,8.46a29.68,29.68,0,0,1-10.45,7.36c-8.1,3.26-18.63,4-24.4,11.12-2.38,3-3.55,6.64-6.1,9.46-3.21,3.54-8.07,5.16-11.75,8.23a6.53,6.53,0,0,0-1.82,2.13c-.93,2,.14,4.26,1.6,5.68,3.51,3.4,9.2,3.7,12.16,7.82,1.28,1.78,1.84,4,3,5.93,4,6.38,13,5.88,19.6,9.74a29.5,29.5,0,0,1,9.95,9.29A31.38,31.38,0,0,1,413,88.08c1.48,4,2.83,8,7.09,10.66a23.48,23.48,0,0,0,5.87,2.35,37.15,37.15,0,0,0,18.32.79,58.5,58.5,0,0,0,10.12-3.73,88.39,88.39,0,0,1,13.32-4.85A48,48,0,0,1,475.51,92c10.48-.9,22,2,31.29-2.89,8.35-4.38,12.78-15.26,10.17-24.18-1.78-6.09-6.45-10.87-7.24-17-.83-6.47,2.41-13,5.89-18.63S523,18,524.64,11a5.61,5.61,0,0,0,0-3.44,5.69,5.69,0,0,0-1.27-1.71C512.35-5.45,497-11.93,481.05-12.7l-1.14-.05C463.84-13.31,447.72-8.62,432.81-2.63Z" transform="translate(71.27 45.61)"/><path class="cls-5" d="M441.38,11.32a33.42,33.42,0,0,0-9.08,4.92,23.25,23.25,0,0,1-6.83,4.16c-5.18,2-11.58,2.66-15.55,6.67-1.65,1.67-2.69,3.72-4.4,5.36-2.16,2.07-5.11,3.22-7.41,5.15a4.9,4.9,0,0,0-1.18,1.31,3,3,0,0,0,.47,3.2c1.5,2,4.14,2.51,5.48,4.94.58,1,.81,2.35,1.36,3.46,1.9,3.75,6.43,4.08,10,6.53,2.81,1.92,5.67,3.68,7.78,5.32a32.85,32.85,0,0,1,2.75,2.42,19.84,19.84,0,0,0,6.68,4.66c1.31.55,2.77,1,4.22,1.41a44.74,44.74,0,0,0,11.19,2.27,40.5,40.5,0,0,0,6-.34c2.52-.25,5.16-.55,8.15-.7,1.56-.08,3.2-.15,4.92-.15,6.7,0,14.16,1,19.84-2.62,4.82-3,7.36-9.49,6.43-15-.62-3.73-2.82-6.81-2.58-10.4.3-4.33,3.24-8.15,5.83-11.67,2.7-3.68,5.11-7.27,5.49-12.37a4.91,4.91,0,0,0-.2-2.33,5.29,5.29,0,0,0-.8-1.21A35.55,35.55,0,0,0,472.8,3.28h-.75C461.57,3.32,451.08,7.41,441.38,11.32Z" transform="translate(71.27 45.61)"/><path class="cls-5" d="M429.67,33.65c-1.89,1.8-3,4.73-1.83,7.09,2.22,2,5.72,1.56,8.61.7s6-2,8.83-.86c4.27,1.7,5.25,7.49,8.94,10.23a8,8,0,0,0,10.48-1.29c2.26-2.76,2.42-6.83,4.78-9.5,4.3-4.87,10.77-5.15,7-13.17-2.28-4.83-6.55-8.14-11.91-7.58-5,.52-10,4.14-14.58,6C443.72,27.78,434.68,28.9,429.67,33.65Z" transform="translate(71.27 45.61)"/><path class="cls-5" d="M756.91,89.25a249.43,249.43,0,0,0-32.12-12c-5.8-1.73-13.95-2.15-16,3.55-.75,2.09-.32,4.42-.78,6.58-1.21,5.69-7.81,8.33-13.57,9a9.19,9.19,0,0,0-4,1.08c-2,1.35-2.51,4.09-2.73,6.52-.82,9-.9,18.52-5.66,26.17-7.2,11.58-22.5,14.88-36.13,15.22A148.76,148.76,0,0,1,602.35,140c-10.14-2.82-20.65-6.75-30.9-4.36-5.47,1.27-10.39,4.28-15.72,6.05-8.42,2.8-17.51,2.44-26.37,3a126.92,126.92,0,0,0-73.14,29.17c-6.82,5.72-13.18,12.38-16.53,20.63-4,9.79-3.32,21-.28,31.09S447.73,245,453,254.16c3.7,6.49,8.83,13.84,16.3,13.66,2.94-.06,5.93-1.37,8.73-.48,4.21,1.33,5.49,6.56,8.32,10,4.58,5.5,13.27,5.65,19.77,2.65s11.48-8.42,16.87-13.12c28.7-25,69.45-30.15,107.51-30.46,9.52-.08,19.21.1,28.29,3,5.54,1.77,10.75,4.51,16.33,6.16,9.61,2.85,19.84,2.35,29.86,2.78a159.18,159.18,0,0,1,63.88,16.45" transform="translate(71.27 45.61)"/><path class="cls-5" d="M753.68,103.88c-4.79-4.14-9.81-8.4-15.93-10s-13.65.18-16.59,5.78a10.56,10.56,0,0,1-2,3.29c-1.46,1.27-3.61,1.13-5.54,1.25a17.12,17.12,0,0,0-14.82,11.45c-2.6,7.92.79,17.37-3.55,24.47-2.68,4.39-7.69,6.72-12.5,8.51a123.69,123.69,0,0,1-53.74,7.2c-17.2-1.54-34.5-6.68-51.48-3.49-6.21,1.16-12.17,3.42-18.34,4.82-7.68,1.74-15.59,2.13-23.39,3.22a129.14,129.14,0,0,0-41.62,13.37c-11.78,6.16-22.93,14.54-29.28,26.22s-6.94,27.15,1.17,37.69a10.33,10.33,0,0,0,5,3.93c2.78.82,5.8-.33,8.65.18,6.81,1.21,9.52,10.88,16.33,12.07,3.12.55,6.21-.89,9-2.32C525.66,241,545.82,228.73,568.43,224c11-2.28,22.2-2.71,33.38-3.13,19.6-.74,39.55-1.45,58.5,3.58,6.41,1.7,12.64,4.05,19.12,5.42,13.66,2.89,27.84,1.36,41.73,2.7A101.67,101.67,0,0,1,758,243.47" transform="translate(71.27 45.61)"/><path class="cls-5" d="M506,191c-4,2.16-8,4.6-10.51,8.38s-3,9.26.09,12.6c1.64,1.79,4.13,2.85,5.17,5.05.82,1.74.53,3.82,1.19,5.63,1,2.88,4.34,4.43,7.4,4.41s6-1.31,8.74-2.58c16.82-7.72,33.62-16.38,51.93-19,15.81-2.27,32,.09,47.81-2.49,5.77-1,12.4-3.49,13.72-9.19,3.59-15.47-20-26.78-32.38-26.06-19.74,1.15-39.66,3.24-58.66,8.93A182.25,182.25,0,0,0,506,191Z" transform="translate(71.27 45.61)"/><path class="cls-5" d="M758.41,120.5c-4.43.63-8.58-2-12.56-4s-9-3.6-12.72-1.11c-2.4,1.61-3.61,4.55-5.9,6.33-1.84,1.43-4.28,2-5.92,3.69-2.21,2.22-2.41,5.65-2.95,8.73a31.91,31.91,0,0,1-11.16,19.07c-6.23,5.07-14.1,7.57-21.72,10.11S670,168.66,664.23,174.2s-9.11,14.54-5.74,21.83S670.24,206.5,678,208c13.63,2.66,27.67,2.11,41.45,3.84s28,6.22,37.15,16.68" transform="translate(71.27 45.61)"/><path class="cls-5" d="M756.56,146.26a8.51,8.51,0,0,0-8.65-3.72,10.49,10.49,0,0,0-7.47,6.06c-.83,1.84-1.18,3.87-2,5.73-2.9,6.77-10.72,9.61-17.51,12.42A114.55,114.55,0,0,0,704.82,175c-4,2.49-8.33,6-8.39,10.7,0,3.4,2.3,6.49,5.24,8.2s6.41,2.24,9.8,2.48c8.25.58,16.62-.38,24.76,1.06a42.7,42.7,0,0,1,21.67,10.88" transform="translate(71.27 45.61)"/><path class="cls-5" d="M753.75,167.32l-13.83,4.36a13.85,13.85,0,0,0-4.6,2.1,9,9,0,0,0-3.06,7.09,6.72,6.72,0,0,0,1.52,4.62c2.41,2.57,6.57,1.56,10,.87,6.62-1.34,14.58-.18,18.24,5.49" transform="translate(71.27 45.61)"/><path class="cls-5" d="M540.71,191.35a7.19,7.19,0,0,0-3.23,2.3c-.74,1.12-.69,2.87.45,3.58a3.88,3.88,0,0,0,2.87.09c11.69-2.69,23.46-5.59,35.49-6.12,3.79-.17,18.25,2.91,14.55-2.81-2.79-4.32-13.88-5.45-18.36-5.34C561.79,183.3,550.38,187,540.71,191.35Z" transform="translate(71.27 45.61)"/><path class="cls-5" d="M383.32,267.51c-13.74,12.19-21.51,30.23-36,41.51-7.62,5.93-17.61,10.78-19.84,20.16-1.21,5.09.25,10.43,2.16,15.3a42.36,42.36,0,0,0,5.43,10.23c10.6,14,32.29,16.05,42.3,30.47,3.48,5,5.29,11.27,9.75,15.45s10.65,5.55,16.65,5.81,12-.49,18,0c14.93,1.2,29.59,9.94,44.06,6.07,8.79-2.36,15.75-9.07,21.37-16.24,5-6.44,9.46-13.76,10.36-21.89,1.71-15.5-9.55-29.85-9.53-45.44,0-4.58,1-9.11,1.11-13.69s-.83-9.47-4-12.75c-2.91-3-7.43-4.37-9.46-8-.57-1-.91-2.18-1.57-3.15-3.08-4.48-9.95-2.19-15.38-2.54-18.69-1.21-17.33-26.26-30.28-34.36S392.87,259,383.32,267.51Z" transform="translate(71.27 45.61)"/><path class="cls-5" d="M391.9,288.87a66.45,66.45,0,0,0-8.7,10.29c-4.73,6.62-9.19,13.57-15.56,18.65-5.21,4.14-12,7.55-13.67,14-.9,3.49,0,7.13,1.18,10.47a28.83,28.83,0,0,0,3.43,7c6.78,9.67,21.37,11.17,27.73,21.45,1.69,2.72,3.22,5.73,5.17,8.08a16.61,16.61,0,0,0,3.45,3.2,15.29,15.29,0,0,0,4.07,1.9,37.91,37.91,0,0,0,9.52,1.28c4.3.18,8.61-.25,12.89.16,7.45.72,14.81,4,22.13,4.95A24.5,24.5,0,0,0,453,390c6.33-1.59,11.42-6.19,15.57-11.2,3.77-4.52,7-9.65,7.68-15.33,1.41-10.93-6.54-21.14-7.08-32.06-.16-3.19.35-6.33.26-9.5s-.9-6.53-3.2-8.81c-2.12-2.08-5.3-3.09-6.81-5.58-.43-.7-.7-1.48-1.19-2.14-2.29-3.09-7.16-1.66-11.06-2-13.23-1.1-13.18-18.05-22.64-23.57-8-4.64-20.65.64-28.68,6.06A33.73,33.73,0,0,0,391.9,288.87Z" transform="translate(71.27 45.61)"/><path class="cls-5" d="M400.48,310.23a33.81,33.81,0,0,0-4.37,5.84c-2.34,3.75-4.72,7.62-8.15,10.53-2.78,2.35-6.42,4.32-7.49,7.8a10.42,10.42,0,0,0,.2,5.65,15.93,15.93,0,0,0,1.44,3.82c3,5.34,10.22,6.49,13.16,12.43a15,15,0,0,0,4.42,5.62,10.85,10.85,0,0,0,3.06,1.49A14,14,0,0,0,406,364c2.29.14,4.78-.09,7.29,0a77.08,77.08,0,0,1,7.76.34c4.49.6,8.91,2.58,13.35,3.21a15.89,15.89,0,0,0,5.71-.11c3.85-.82,7.07-3.33,9.76-6.15,2.49-2.61,4.45-5.54,5-8.77,1.09-6.37-3.52-12.43-4.64-18.7-.32-1.78-.29-3.54-.59-5.29a8.32,8.32,0,0,0-2.37-4.88c-1.32-1.18-3.17-1.8-4.17-3.14-.28-.38-.48-.8-.79-1.15-1.52-1.69-4.37-1.11-6.76-1.42-7.75-1-9-9.85-15-12.77-5.18-2.53-12.68.15-17.68,3.27A13.39,13.39,0,0,0,400.48,310.23Z" transform="translate(71.27 45.61)"/><path class="cls-5" d="M409.93,331a1.67,1.67,0,0,0-.87.64A2.6,2.6,0,0,0,409,333c.24,3.47-5.17,5.42-4.78,8.87.19,1.74,1.94,3,3.68,3.17a10.92,10.92,0,0,0,5.09-1,13.64,13.64,0,0,1,5.05-1.28c2.5,0,4.75,1.54,7.2,2a9,9,0,0,0,6-1c6.42-3.57-.66-9-4.79-10.43C421.67,331.67,414.77,329,409.93,331Z" transform="translate(71.27 45.61)"/><path class="cls-5" d="M498.54,514a270.81,270.81,0,0,1-25.79-54.55c-1.81-5.3-3.45-11.17-1.39-16.38,3.32-8.37,14-10.6,20.79-16.55,7.47-6.56,9.93-17.59,17.68-23.83,6-4.83,14.24-5.95,21.92-5.35s15.18,2.7,22.84,3.55c12.18,1.34,24.49-.52,36.72.12s25.26,4.42,32.6,14.23c3.66,4.89,5.57,10.85,8.7,16.1,7.11,11.94,20.33,19.51,34.06,21.65s27.89-.7,40.73-6c8.89-3.67,17.37-8.54,26.73-10.76s20.21-1.27,27.1,5.44c2.19,2.14,7,4.35,9.08,6.63,9.5,10.56,15.15,24.15,18.06,38.06s3.23,28.21,3.13,42.41" transform="translate(71.27 45.61)"/><path class="cls-5" d="M524.78,512.67a200.51,200.51,0,0,1-20.22-42.24c-1.4-4.12-2.66-8.67-1.13-12.72,2.46-6.52,10.51-8.39,15.6-13.12,5.72-5.32,7.74-14,13.86-19,4.75-3.87,11.22-4.89,17.31-4.55a69,69,0,0,1,7.27.88c3.61.59,7.22,1.33,10.86,1.74,9.66,1.11,19.42-.07,29.13.49s19.84,3.33,25.78,10.61c3,3.62,4.63,8,7.19,11.92a36.25,36.25,0,0,0,17.41,13.43,45.16,45.16,0,0,0,9.66,2.51c10.81,1.56,22-.52,32.06-4.32,7-2.62,13.62-6.16,20.87-7.42s15.57.11,20.71,5.79c1.66,1.83,5.26,3.75,6.83,5.68,7.06,8.64,11.55,19.37,14,30.39s3,22.29,3.36,33.42" transform="translate(71.27 45.61)"/><path class="cls-5" d="M551,511.33a130.51,130.51,0,0,1-14.64-29.94c-1-2.93-1.88-6.15-.89-9.05,1.6-4.66,7-6.19,10.42-9.7,4-4.08,5.56-10.49,10.05-14.24,3.48-2.91,8.19-3.84,12.68-3.75a46.34,46.34,0,0,1,5.38.48c2.69.38,5.36.9,8.05,1.22,7.15.86,14.34.38,21.54.85,7,.44,14.41,2.24,19,7,2.27,2.37,3.67,5.24,5.67,7.76a27.73,27.73,0,0,0,13,8.63,37.35,37.35,0,0,0,7.07,1.59c7.91,1,16.06-.35,23.4-2.63,5.1-1.57,9.9-3.78,15-4.09,5.35-.32,10.92,1.52,14.33,6.14,1.12,1.53,3.48,3.16,4.57,4.73A67.43,67.43,0,0,1,715.52,499c1.94,8.13,2.78,16.38,3.58,24.43" transform="translate(71.27 45.61)"/><path class="cls-5" d="M577.26,510a65.32,65.32,0,0,1-9.07-17.63,9.71,9.71,0,0,1-.64-5.39c.74-2.8,3.5-4,5.24-6.27,2.2-2.87,3.37-6.94,6.24-9.45a13.18,13.18,0,0,1,8.06-2.95,24,24,0,0,1,3.49.09c1.75.16,3.49.45,5.24.69,4.63.62,9.26.82,13.93,1.2,4.4.35,9,1.17,12.16,3.37,1.58,1.1,2.72,2.43,4.16,3.58a21.2,21.2,0,0,0,8.59,3.84,34.43,34.43,0,0,0,4.49.67,62.1,62.1,0,0,0,14.73-.94c3.21-.53,6.23-1.33,9.16-.75a11.17,11.17,0,0,1,7.93,6.48c.59,1.24,1.72,2.55,2.33,3.79a88.46,88.46,0,0,1,5.79,15.06c1.46,5.24,2.56,10.46,3.81,15.44" transform="translate(71.27 45.61)"/><path class="cls-5" d="M603.5,508.65a10.94,10.94,0,0,1-3.83-9.9,8.64,8.64,0,0,1,7.47-7.1c3-.22,5.8,1.32,8.76,1.72,4.08.57,8.11-1,12.17-1.8s8.94-.32,11.27,3.08c1.88,2.74,1.42,6.36,1.62,9.68a23,23,0,0,0,5.74,13.84" transform="translate(71.27 45.61)"/></g></g></g></g></svg>